<svg width="128" height="128" viewBox="0 0 40 40" fill="none" xmlns="http://www.w3.org/2000/svg">
<path d="M39.1957 0.550583H0.545624V39.2188H39.1957V0.550583Z" fill="#0081BD"/>
<path d="M38.8523 1.16706V38.8518H1.16181V1.16706H38.8523ZM40 0H0V40H39.9812V0H40Z" fill="#0081BD"/>
<path fill-rule="evenodd" clip-rule="evenodd" d="M26.7592 21.7977L26.9238 21.6471C26.9987 21.586 27.085 21.5403 27.1777 21.5126C27.2703 21.485 27.3675 21.4759 27.4637 21.486C27.5598 21.496 27.6531 21.525 27.738 21.5712C27.8229 21.6174 27.8979 21.68 27.9586 21.7553L30.7808 25.1341C30.9054 25.2845 30.9659 25.4778 30.9492 25.6725C30.9325 25.8671 30.8399 26.0473 30.6914 26.1741L30.5268 26.3059C30.3794 26.434 30.1873 26.4985 29.9925 26.4853C29.7977 26.472 29.616 26.3822 29.4873 26.2353L26.6651 22.8377C26.601 22.7643 26.5523 22.6787 26.522 22.5861C26.4917 22.4935 26.4804 22.3957 26.4888 22.2986C26.4971 22.2016 26.5249 22.1072 26.5706 22.0211C26.6162 21.935 26.6788 21.859 26.7545 21.7977" fill="white"/>
<path fill-rule="evenodd" clip-rule="evenodd" d="M26.0395 13.5153C27.2928 13.5147 28.5192 13.8784 29.5697 14.5622C30.6202 15.246 31.4495 16.2204 31.9567 17.367C32.4639 18.5136 32.6273 19.7829 32.4269 21.0206C32.2265 22.2583 31.6709 23.4111 30.8278 24.3388L29.5814 22.8659C30.2481 22.0584 30.6109 21.0427 30.6068 19.9953C30.6096 19.091 30.3441 18.2061 29.8439 17.4528C29.3438 16.6995 28.6314 16.1117 27.7971 15.7637C26.9628 15.4156 26.044 15.3231 25.1572 15.4979C24.2703 15.6726 23.4551 16.1066 22.815 16.7451C22.1748 17.3836 21.7384 18.1978 21.5611 19.0845C21.3837 19.9713 21.4733 20.8908 21.8186 21.7265C22.1638 22.5623 22.7492 23.2768 23.5006 23.7795C24.252 24.2822 25.1356 24.5506 26.0395 24.5506C26.4489 24.5542 26.857 24.5036 27.2531 24.4L28.5607 25.9482C27.761 26.279 26.9048 26.4516 26.0395 26.4565C24.8514 26.4567 23.6864 26.1285 22.673 25.5082C21.6595 24.8879 20.8371 23.9996 20.2963 22.9412C20.733 22.0172 20.9596 21.0079 20.9596 19.9859C20.9596 18.9639 20.733 17.9545 20.2963 17.0306C20.8382 15.9742 21.6613 15.0881 22.6747 14.4703C23.6882 13.8524 24.8527 13.5268 26.0395 13.5294" fill="white"/>
<path fill-rule="evenodd" clip-rule="evenodd" d="M13.9605 13.5153C15.2387 13.5153 16.4882 13.8945 17.5511 14.605C18.6139 15.3155 19.4422 16.3253 19.9314 17.5068C20.4205 18.6883 20.5485 19.9884 20.2992 21.2426C20.0498 22.4969 19.4343 23.649 18.5304 24.5532C17.6266 25.4575 16.475 26.0733 15.2213 26.3228C13.9677 26.5723 12.6682 26.4443 11.4873 25.9549C10.3063 25.4655 9.29699 24.6367 8.58684 23.5734C7.8767 22.5101 7.49766 21.26 7.49766 19.9812C7.49642 19.1317 7.66274 18.2904 7.98709 17.5053C8.31144 16.7203 8.78744 16.007 9.38782 15.4063C9.98819 14.8057 10.7011 14.3295 11.4858 14.005C12.2705 13.6805 13.1114 13.5141 13.9605 13.5153ZM13.9605 15.3977C14.8625 15.3986 15.744 15.667 16.4935 16.1689C17.2431 16.6708 17.8272 17.3838 18.1719 18.2177C18.5167 19.0516 18.6066 19.969 18.4305 20.854C18.2543 21.7391 17.8198 22.552 17.182 23.1901C16.5442 23.8282 15.7317 24.2628 14.8471 24.4391C13.9624 24.6154 13.0455 24.5254 12.2119 24.1805C11.3784 23.8356 10.6658 23.2512 10.1641 22.5013C9.66243 21.7514 9.39417 20.8695 9.39324 19.9671C9.39324 18.7552 9.87443 17.5929 10.731 16.736C11.5875 15.8791 12.7492 15.3977 13.9605 15.3977Z" fill="white"/>
</svg>
